<svg width="120" height="30" viewBox="0 0 120 30" fill="none" xmlns="http://www.w3.org/2000/svg">
<path d="M117.153 30C116.486 30 115.94 29.7867 115.513 29.36C115.113 28.9333 114.913 28.3867 114.913 27.72C114.913 27.0533 115.113 26.52 115.513 26.12C115.94 25.6933 116.486 25.48 117.153 25.48C117.846 25.48 118.406 25.6933 118.833 26.12C119.26 26.52 119.473 27.0533 119.473 27.72C119.473 28.3867 119.26 28.9333 118.833 29.36C118.406 29.7867 117.846 30 117.153 30Z" fill="white"/>
<path d="M90.5684 1.08V0H96.9284V12.68C97.7018 11.5333 98.5818 10.7067 99.5684 10.2C100.555 9.66667 101.622 9.4 102.768 9.4C105.062 9.4 106.835 10.2667 108.088 12C109.368 13.7333 110.008 16.16 110.008 19.28V20.08C110.008 23.12 109.275 25.5333 107.808 27.32C106.368 29.1067 104.342 30 101.728 30C99.6484 30 97.9418 29.32 96.6084 27.96C96.2351 28.1733 95.8884 28.44 95.5684 28.76C95.2484 29.08 94.9284 29.4267 94.6084 29.8H93.6484V3.24C93.6484 2.30667 93.6084 1.76 93.5284 1.6C93.4484 1.44 93.1951 1.33333 92.7684 1.28L90.5684 1.08ZM102.248 10.84C101.422 10.84 100.555 11.1067 99.6484 11.64C98.7684 12.1733 97.8618 13.2533 96.9284 14.88V26.32C98.0751 27.8933 99.5951 28.68 101.488 28.68C103.222 28.68 104.475 28.0267 105.248 26.72C106.022 25.3867 106.408 23.5733 106.408 21.28V18.08C106.408 15.5733 106.048 13.7467 105.328 12.6C104.608 11.4267 103.582 10.84 102.248 10.84Z" fill="white"/>
<path d="M87.2628 19.28V20.08C87.2628 23.0933 86.5028 25.5067 84.9828 27.32C83.4895 29.1067 81.3561 30 78.5828 30C75.8361 30 73.7028 29.1067 72.1828 27.32C70.6895 25.5067 69.9428 23.0933 69.9428 20.08V19.28C69.9428 16.2933 70.6895 13.9067 72.1828 12.12C73.6761 10.3067 75.8095 9.4 78.5828 9.4C81.3561 9.4 83.4895 10.3067 84.9828 12.12C86.5028 13.9067 87.2628 16.2933 87.2628 19.28ZM83.6628 18.48C83.6628 15.7067 83.2228 13.72 82.3428 12.52C81.4895 11.2933 80.2361 10.68 78.5828 10.68C76.9561 10.68 75.7028 11.2933 74.8228 12.52C73.9695 13.72 73.5428 15.7067 73.5428 18.48V20.88C73.5428 23.68 73.9695 25.6933 74.8228 26.92C75.7028 28.12 76.9561 28.72 78.5828 28.72C80.2361 28.72 81.4895 28.12 82.3428 26.92C83.2228 25.6933 83.6628 23.68 83.6628 20.88V18.48Z" fill="white"/>
<path d="M66.5353 28.56V29.6H57.0953V28.56L59.2953 28.32C59.722 28.2667 59.9753 28.16 60.0553 28C60.1353 27.84 60.1753 27.2933 60.1753 26.36V16.4C60.1753 14.4267 59.8553 13.04 59.2153 12.24C58.5753 11.4133 57.6553 11 56.4553 11C55.5753 11 54.602 11.2667 53.5353 11.8C52.4687 12.3333 51.4687 13.3733 50.5353 14.92V26.36C50.5353 27.2933 50.5753 27.84 50.6553 28C50.7353 28.16 50.9887 28.2667 51.4153 28.32L53.6153 28.56V29.6H44.1753V28.56L46.3753 28.32C46.802 28.2667 47.0553 28.16 47.1353 28C47.2153 27.84 47.2553 27.2933 47.2553 26.36V13.04C47.2553 12.1067 47.2153 11.56 47.1353 11.4C47.0553 11.24 46.802 11.1333 46.3753 11.08L44.1753 10.88V9.8H50.3353V13.04C51.2953 11.76 52.3753 10.84 53.5753 10.28C54.802 9.69334 56.0287 9.4 57.2553 9.4C59.2287 9.4 60.7487 10.0133 61.8153 11.24C62.9087 12.44 63.4553 14.1467 63.4553 16.36V26.36C63.4553 27.2933 63.4953 27.84 63.5753 28C63.6553 28.16 63.9087 28.2667 64.3353 28.32L66.5353 28.56Z" fill="white"/>
<path d="M26.5972 10.88V9.8H32.7572V13C33.6905 11.7467 34.6239 10.84 35.5572 10.28C36.5172 9.69334 37.4905 9.4 38.4772 9.4C39.3305 9.4 40.1305 9.65334 40.8772 10.16C41.6239 10.6667 42.2505 11.48 42.7572 12.6L40.1572 14.16C39.7572 13.2 39.3038 12.5333 38.7972 12.16C38.2905 11.7867 37.7305 11.6 37.1172 11.6C36.4505 11.6 35.7839 11.8133 35.1172 12.24C34.4772 12.6667 33.7572 13.4667 32.9572 14.64V26.36C32.9572 27.2933 32.9972 27.8533 33.0772 28.04C33.1572 28.2 33.4105 28.2933 33.8372 28.32L36.8372 28.56V29.6H26.5972V28.56L28.7972 28.32C29.2239 28.2667 29.4772 28.16 29.5572 28C29.6372 27.84 29.6772 27.2933 29.6772 26.36V13.04C29.6772 12.1067 29.6372 11.56 29.5572 11.4C29.4772 11.24 29.2239 11.1333 28.7972 11.08L26.5972 10.88Z" fill="white"/>
<path d="M7.6 28.56V29.6H0V28.56L2.16 28.32C2.45333 28.2933 2.66667 28.2533 2.8 28.2C2.93333 28.12 3.05333 27.96 3.16 27.72C3.29333 27.4533 3.45333 27 3.64 26.36L11.36 2.4H13.88L21.68 26.36C21.8667 27 22.0133 27.4533 22.12 27.72C22.2533 27.96 22.3867 28.12 22.52 28.2C22.6533 28.2533 22.8533 28.2933 23.12 28.32L25.32 28.56V29.6H15.6V28.56L17.8 28.32C18.2267 28.2667 18.4533 28.16 18.48 28C18.5333 27.8133 18.4133 27.2667 18.12 26.36L16.48 21.24H6.72L5.08 26.36C4.78667 27.2667 4.65333 27.8133 4.68 28C4.73333 28.16 4.97333 28.2667 5.4 28.32L7.6 28.56ZM7.12 19.96H16.08L11.6 6.04L7.12 19.96Z" fill="white"/>
</svg>
